<?xml version="1.0" encoding="utf-8"?>
<!-- Generator: Adobe Illustrator 15.0.0, SVG Export Plug-In . SVG Version: 6.00 Build 0)  -->
<!DOCTYPE svg PUBLIC "-//W3C//DTD SVG 1.1//EN" "http://www.w3.org/Graphics/SVG/1.1/DTD/svg11.dtd">
<svg version="1.1" id="Ebene_1" xmlns="http://www.w3.org/2000/svg" xmlns:xlink="http://www.w3.org/1999/xlink" x="0px" y="0px"
	 width="100px" height="100px" viewBox="0 0 100 100" enable-background="new 0 0 100 100" xml:space="preserve">
<circle fill="#B2B2B2" cx="50" cy="50" r="50"/>
<g>
	<path fill="#231815" d="M24.6,53.326c0-14.16,6.805-26.504,16.893-33.065C26.216,23.375,14.72,36.888,14.72,53.086
		c0,15.811,10.959,29.055,25.691,32.574C30.92,78.938,24.6,66.973,24.6,53.326z"/>
	<path fill="#231815" d="M75.399,53.324c0-14.157-6.806-26.501-16.894-33.063C73.785,23.375,85.28,36.888,85.28,53.084
		c0,15.813-10.959,29.055-25.69,32.574C69.079,78.936,75.399,66.971,75.399,53.324z"/>
	<circle fill="#231815" cx="49.682" cy="19.777" r="5.437"/>
	<path fill="#231815" d="M41.806,52.592c0,8.113,2.951,15.564,7.876,21.434c4.923-5.869,7.873-13.318,7.873-21.434
		c0-8.117-2.95-15.566-7.873-21.436C44.758,37.024,41.806,44.476,41.806,52.592z"/>
	<path fill="#231815" d="M49.682,44.716c-8.116,0-15.565,2.952-21.437,7.876c5.869,4.922,13.319,7.875,21.437,7.875
		c8.115,0,15.563-2.951,21.435-7.875C65.246,47.667,57.797,44.716,49.682,44.716z"/>
</g>
</svg>
