<?xml version="1.0" encoding="UTF-8" standalone="no"?>
<!-- Created with Inkscape (http://www.inkscape.org/) -->
<svg xmlns:svg="http://www.w3.org/2000/svg" xmlns="http://www.w3.org/2000/svg" version="1.0" width="640" height="680" id="svg2">
  <defs id="defs4"/>
  <g transform="translate(20,-392.36218)" id="layer1">
    <path d="M 300,412.375 C 266.88,412.375 239.99999,439.255 240,472.375 C 240,505.495 266.88,532.375 300,532.375 C 333.12,532.375 360,505.495 360,472.375 C 360,439.255 333.12,412.375 300,412.375 z M 225.1875,461.78125 C 95.751715,495.04948 -7.1054274e-015,612.60512 0,752.375 C 0,892.14484 95.751777,1009.6692 225.1875,1042.9375 C 148.10771,970.00948 100,866.78139 100,752.375 C 100,637.96861 148.10771,534.70926 225.1875,461.78125 z M 374.8125,461.78125 C 451.89229,534.70927 500,637.96861 500,752.375 C 500,866.78138 451.89229,970.00948 374.8125,1042.9375 C 504.24822,1009.6692 600,892.14484 600,752.375 C 600,612.60512 504.24829,495.04948 374.8125,461.78125 z M 300,554.03125 C 267.56768,590.7924 243.99038,635.56127 232.625,684.96875 C 183.20514,696.33137 138.4564,719.93584 101.6875,752.375 C 138.4564,784.81416 183.20514,808.38738 232.625,819.75 C 243.98776,869.16002 267.56119,913.919 300,950.6875 C 332.43881,913.91899 356.01224,869.16002 367.375,819.75 C 416.78859,808.38803 461.57301,784.81578 498.34375,752.375 C 461.573,719.93422 416.78859,696.33072 367.375,684.96875 C 356.00962,635.56127 332.43232,590.7924 300,554.03125 z " style="opacity:1;fill:#000000;fill-opacity:1;fill-rule:nonzero;stroke:none;stroke-width:30;stroke-linecap:round;stroke-linejoin:round;stroke-miterlimit:4;stroke-dasharray:none;stroke-opacity:1" id="path2160"/>
  </g>
</svg>