<?xml version="1.0" encoding="utf-8"?>
<!-- Generator: Adobe Illustrator 15.0.0, SVG Export Plug-In . SVG Version: 6.00 Build 0)  -->
<!DOCTYPE svg PUBLIC "-//W3C//DTD SVG 1.1//EN" "http://www.w3.org/Graphics/SVG/1.1/DTD/svg11.dtd">
<svg version="1.0" xmlns="http://www.w3.org/2000/svg"
 width="78.000000pt" height="76.000000pt" viewBox="0 0 78.000000 76.000000"
 preserveAspectRatio="xMidYMid meet">
<metadata>
Created by potrace 1.10, written by Peter Selinger 2001-2011
</metadata>
<g transform="translate(0.000000,76.000000) scale(0.100000,-0.100000)"
fill="#216d0a" stroke="none">
<path d="M336 733 c-22 -22 -26 -33 -22 -58 13 -63 86 -86 131 -40 14 13 25
35 25 48 0 23 -43 77 -61 77 -16 0 -10 -19 12 -39 40 -37 3 -93 -50 -76 -31
10 -36 43 -12 76 35 48 20 56 -23 12z"/>
<path d="M231 677 c-113 -56 -206 -159 -217 -240 -2 -16 -6 -39 -10 -50 -6
-19 -5 -20 8 -10 8 7 20 32 27 55 18 60 66 128 112 161 44 32 48 28 18 -14
-11 -16 -17 -29 -14 -29 4 0 1 -10 -7 -22 -49 -78 -49 -250 -1 -365 34 -79 26
-84 -34 -21 -33 34 -83 125 -83 151 0 8 -7 21 -16 28 -15 12 -16 11 -11 -6 3
-11 9 -35 12 -54 16 -77 94 -170 187 -220 31 -17 62 -31 68 -31 6 0 -7 21 -29
47 -34 41 -80 125 -87 158 -22 111 -23 135 -13 186 6 30 12 64 14 75 6 42 80
160 128 204 33 32 16 31 -52 -3z"/>
<path d="M531 648 c41 -53 86 -133 96 -172 27 -111 27 -138 -1 -266 -9 -43
-76 -152 -111 -182 -30 -26 -2 -22 55 7 96 49 178 143 199 229 19 79 -1 69
-33 -16 -18 -49 -83 -130 -120 -150 -18 -9 -19 -9 -10 3 6 8 23 44 38 81 21
55 26 82 26 160 0 98 -16 161 -60 235 -33 57 -14 51 49 -14 41 -42 63 -74 72
-104 7 -24 21 -53 32 -64 19 -20 19 -20 12 15 -12 62 -53 134 -102 181 -45 43
-150 109 -173 109 -6 0 8 -23 31 -52z"/>
<path d="M368 562 c-25 -30 -45 -66 -57 -104 -10 -29 -18 -38 -35 -38 -27 0
-98 -33 -116 -54 -10 -13 -10 -19 0 -31 15 -18 62 -41 109 -52 19 -5 35 -16
36 -24 5 -29 44 -105 65 -124 20 -18 21 -18 41 1 11 11 31 47 44 80 22 53 27
60 62 68 50 12 118 51 118 67 0 14 -94 64 -135 73 -19 4 -30 16 -39 43 -17 46
-52 101 -68 107 -6 3 -17 -3 -25 -12z m67 -104 c8 -35 26 -49 93 -73 31 -11
57 -25 59 -31 4 -12 -47 -38 -95 -49 -27 -5 -37 -15 -48 -43 -23 -58 -48 -102
-57 -102 -4 0 -22 30 -40 67 -31 66 -34 68 -95 91 -35 13 -61 29 -59 35 2 6
28 20 58 30 55 19 84 44 94 86 3 12 13 34 22 48 l17 25 23 -28 c12 -16 25 -41
28 -56z"/>
</g>
</svg>
